<svg width="203" height="202" viewBox="0 0 203 202" fill="none" xmlns="http://www.w3.org/2000/svg">
<path d="M151.824 75.8273C151.824 103.624 129.311 126.158 101.516 126.158C101.516 112.275 90.2345 100.993 76.3509 100.993H51.16C26.0182 100.993 0.852722 86.8382 0.852722 50.6618C0.852722 13.6982 26.0182 0.329102 51.1618 0.329102H101.516C126.682 0.329102 151.825 15.9218 151.825 50.66L151.824 75.8273Z" fill="#F4A424"/>
<path d="M164.309 77.1655C163.569 111.218 135.727 138.742 101.516 138.742H88.9346V126.16C88.9302 122.824 87.6031 119.626 85.2441 117.267C82.8852 114.908 79.687 113.581 76.3509 113.576H52.4364C51.59 117.717 51.1618 121.932 51.1582 126.158V151.324C51.1582 179.122 73.7182 201.656 101.515 201.656C101.515 187.747 112.796 176.491 126.68 176.491H151.822C177.013 176.491 202.178 162.335 202.178 126.158C202.178 95.3764 184.656 81.1109 164.305 77.1655" fill="#F4A424"/>
</svg>
