<svg width="980" height="202" viewBox="0 0 980 202" fill="none" xmlns="http://www.w3.org/2000/svg">
<path d="M294.769 179.607C283.472 179.607 274.593 174.122 268.133 163.153C261.672 152.195 257.866 137.795 256.715 119.953C255.405 97.8679 257.818 78.3527 263.951 61.4073C270.096 44.4739 279.387 31.2618 291.824 21.7709C304.26 12.28 319.066 7.53455 336.242 7.53455C353.587 7.53455 368.436 12.28 380.787 21.7709C393.151 31.2618 402.399 44.4376 408.533 61.2982C414.666 78.1467 416.999 97.6982 415.533 119.953C414.381 138.28 410.575 152.765 404.115 163.407C397.654 174.038 388.775 179.353 377.478 179.353C371.102 179.353 366.193 178.165 362.751 175.789C359.321 173.425 356.908 170.401 355.515 166.716C354.121 163.032 353.424 159.268 353.424 155.425C353.424 151.583 353.672 148.268 354.169 145.48C348.933 145.65 342.793 145.771 335.751 145.844C328.721 145.928 322.83 145.807 318.078 145.48C318.575 148.268 318.824 151.583 318.824 155.425C318.824 159.268 318.127 163.032 316.733 166.716C315.339 170.401 312.927 173.468 309.496 175.916C306.054 178.377 301.145 179.607 294.769 179.607ZM316.369 101.789C329.29 101.304 342.218 101.304 355.151 101.789C355.963 96.0679 355.878 90.5891 354.896 85.3527C353.915 80.1164 351.872 75.8618 348.769 72.5891C345.654 69.3164 341.236 67.68 335.515 67.68C329.781 67.68 325.399 69.3164 322.369 72.5891C319.351 75.8618 317.387 80.0739 316.478 85.2255C315.581 90.377 315.545 95.8982 316.369 101.789Z" fill="#F4A424"/>
<path d="M451.115 179.116C445.551 179.116 441.011 177.274 437.496 173.589C433.981 169.904 431.321 164.953 429.515 158.735C427.721 152.516 426.496 145.401 425.842 137.389C425.187 129.365 424.86 121.098 424.86 112.589C424.86 106.868 424.981 101.019 425.224 95.0436C425.466 89.0679 426.284 83.5467 427.678 78.48C429.072 73.4012 431.442 69.2679 434.787 66.08C438.145 62.8921 442.933 61.2982 449.151 61.2982C453.575 61.2982 457.587 62.3164 461.187 64.3527C464.787 66.4012 467.078 69.4739 468.06 73.5709C471.818 70.1285 476.599 67.6315 482.405 66.08C488.224 64.5285 494.242 63.7527 500.46 63.7527C505.696 63.7527 511.011 65.0194 516.405 67.5527C521.811 70.0861 526.393 73.5649 530.151 77.9891C533.921 82.4012 535.805 87.3891 535.805 92.9527C535.805 97.7042 534.042 102.207 530.515 106.462C526.999 110.716 522.054 112.844 515.678 112.844C512.89 112.844 510.599 112.474 508.805 111.735C506.999 110.995 505.278 110.298 503.642 109.644C502.005 108.989 500.042 108.662 497.751 108.662C491.702 108.662 486.181 111.074 481.187 115.898C476.193 120.735 473.696 127.244 473.696 135.425C473.696 139.68 473.575 144.298 473.333 149.28C473.09 154.274 472.351 159.062 471.115 163.644C469.89 168.225 467.727 171.947 464.624 174.807C461.508 177.68 457.005 179.116 451.115 179.116Z" fill="#F4A424"/>
<path d="M571.151 179.116C565.587 179.116 561.042 177.274 557.515 173.589C553.999 169.904 551.345 164.953 549.551 158.735C547.745 152.516 546.515 145.401 545.86 137.389C545.205 129.365 544.878 121.098 544.878 112.589C544.878 106.868 544.999 101.019 545.242 95.0436C545.496 89.0679 546.315 83.5467 547.696 78.48C549.09 73.4012 551.466 69.2679 554.824 66.08C558.181 62.8921 562.969 61.2982 569.187 61.2982C573.599 61.2982 577.605 62.3164 581.205 64.3527C584.805 66.4012 587.096 69.4739 588.078 73.5709C591.848 70.1285 596.636 67.6315 602.442 66.08C608.248 64.5285 614.26 63.7527 620.478 63.7527C625.715 63.7527 631.036 65.0194 636.442 67.5527C641.836 70.0861 646.418 73.5649 650.187 77.9891C653.945 82.4012 655.824 87.3891 655.824 92.9527C655.824 97.7042 654.066 102.207 650.551 106.462C647.036 110.716 642.084 112.844 635.696 112.844C632.921 112.844 630.63 112.474 628.824 111.735C627.03 110.995 625.315 110.298 623.678 109.644C622.042 108.989 620.078 108.662 617.787 108.662C611.727 108.662 606.199 111.074 601.205 115.898C596.224 120.735 593.733 127.244 593.733 135.425C593.733 139.68 593.605 144.298 593.351 149.28C593.108 154.274 592.375 159.062 591.151 163.644C589.927 168.225 587.757 171.947 584.642 174.807C581.539 177.68 577.042 179.116 571.151 179.116Z" fill="#F4A424"/>
<path d="M693.624 178.625C685.284 178.625 679.066 175.474 674.969 169.171C670.884 162.868 668.187 153.377 666.878 140.698C665.569 128.019 664.915 112.104 664.915 92.9527C664.915 80.3588 665.115 68.8255 665.515 58.3527C665.927 47.88 667.036 38.8376 668.842 31.2255C670.636 23.6133 673.496 17.7224 677.424 13.5527C681.351 9.38304 686.836 7.29819 693.878 7.29819C700.908 7.29819 706.387 9.38304 710.314 13.5527C714.242 17.7224 717.108 23.6133 718.915 31.2255C720.708 38.8376 721.812 47.88 722.224 58.3527C722.636 68.8255 722.842 80.3588 722.842 92.9527C722.842 121.753 720.836 143.232 716.824 157.389C712.811 171.547 705.078 178.625 693.624 178.625Z" fill="#F4A424"/>
<path d="M791.315 179.116C779.205 179.116 768.69 176.128 759.769 170.153C750.86 164.177 743.987 155.831 739.151 145.116C734.327 134.401 731.915 122.007 731.915 107.935C731.915 94.1891 734.084 83.3891 738.424 75.5345C742.763 67.68 748.939 63.7527 756.951 63.7527C762.684 63.7527 767.06 64.8133 770.078 66.9345C773.109 69.0679 775.157 71.7285 776.224 74.9164C777.29 78.1042 777.824 81.4982 777.824 85.0982C777.824 89.68 777.533 94.3467 776.951 99.0982C776.381 103.838 776.096 108.91 776.096 114.316C776.096 122.001 777.69 127.601 780.878 131.116C784.078 134.644 787.557 136.407 791.315 136.407C795.412 136.407 798.969 134.644 801.987 131.116C805.018 127.601 806.533 122.001 806.533 114.316C806.533 108.91 806.29 104.08 805.805 99.8254C805.309 95.5709 805.06 90.7467 805.06 85.3527C805.06 79.6194 806.454 74.583 809.242 70.2436C812.018 65.9164 817.581 63.7527 825.933 63.7527C833.945 63.7527 840.078 67.68 844.333 75.5345C848.587 83.3891 850.715 94.1891 850.715 107.935C850.715 122.007 848.509 134.401 844.096 145.116C839.672 155.831 833.084 164.177 824.333 170.153C815.581 176.128 804.575 179.116 791.315 179.116Z" fill="#F4A424"/>
<path d="M919.933 179.116C907.824 179.116 897.308 176.128 888.387 170.153C879.478 164.177 872.605 155.831 867.769 145.116C862.945 134.401 860.533 122.007 860.533 107.935C860.533 94.1891 862.702 83.3891 867.042 75.5345C871.381 67.68 877.557 63.7527 885.569 63.7527C891.302 63.7527 895.678 64.8133 898.696 66.9345C901.727 69.0679 903.775 71.7285 904.842 74.9164C905.909 78.1042 906.442 81.4982 906.442 85.0982C906.442 89.68 906.151 94.3467 905.569 99.0982C904.999 103.838 904.715 108.91 904.715 114.316C904.715 122.001 906.309 127.601 909.496 131.116C912.696 134.644 916.175 136.407 919.933 136.407C924.03 136.407 927.587 134.644 930.606 131.116C933.636 127.601 935.151 122.001 935.151 114.316C935.151 108.91 934.909 104.08 934.424 99.8254C933.927 95.5709 933.678 90.7467 933.678 85.3527C933.678 79.6194 935.072 74.583 937.86 70.2436C940.636 65.9164 946.199 63.7527 954.551 63.7527C962.563 63.7527 968.696 67.68 972.951 75.5345C977.205 83.3891 979.333 94.1891 979.333 107.935C979.333 122.007 977.127 134.401 972.715 145.116C968.29 155.831 961.702 164.177 952.951 170.153C944.199 176.128 933.193 179.116 919.933 179.116Z" fill="#F4A424"/>
<path d="M151.824 75.8273C151.824 103.624 129.311 126.158 101.516 126.158C101.516 112.275 90.2345 100.993 76.3509 100.993H51.16C26.0182 100.993 0.852722 86.8382 0.852722 50.6618C0.852722 13.6982 26.0182 0.329102 51.1618 0.329102H101.516C126.682 0.329102 151.825 15.9218 151.825 50.66L151.824 75.8273Z" fill="#F4A424"/>
<path d="M164.309 77.1655C163.569 111.218 135.727 138.742 101.516 138.742H88.9346V126.16C88.9302 122.824 87.6031 119.626 85.2441 117.267C82.8852 114.908 79.687 113.581 76.3509 113.576H52.4364C51.59 117.717 51.1618 121.932 51.1582 126.158V151.324C51.1582 179.122 73.7182 201.656 101.515 201.656C101.515 187.747 112.796 176.491 126.68 176.491H151.822C177.013 176.491 202.178 162.335 202.178 126.158C202.178 95.3764 184.656 81.1109 164.305 77.1655" fill="#F4A424"/>
</svg>
